<?xml version="1.0" encoding="UTF-8" standalone="no"?><!-- Generator: Gravit.io --><svg xmlns="http://www.w3.org/2000/svg" xmlns:xlink="http://www.w3.org/1999/xlink" style="isolation:isolate" viewBox="0 0 760 480" width="760pt" height="480pt"><defs><clipPath id="_clipPath_3bl8LUwOulA6CNfSL2csUqv1PS0vze1s"><rect width="760" height="480"/></clipPath></defs><g clip-path="url(#_clipPath_3bl8LUwOulA6CNfSL2csUqv1PS0vze1s)"><path d=" M 677.642 33.434 L 161.526 27.001 C 152.212 26.885 142.475 34.034 139.796 42.956 L 26.688 419.629 C 24.009 428.551 29.396 435.888 38.71 436.004 L 554.826 442.437 C 564.141 442.553 573.878 435.404 576.557 426.482 L 689.665 49.809 C 692.344 40.888 686.957 33.55 677.642 33.434 Z " fill="none" vector-effect="non-scaling-stroke" stroke-width="16" stroke="rgb(0,255,255)" stroke-linejoin="miter" stroke-linecap="square" stroke-miterlimit="3"/><g><path d=" M 361.617 88.571 L 236.544 87.012 L 197.505 217.02 L 334.577 218.729 L 370.165 100.213 C 372.07 93.87 368.239 88.653 361.617 88.571 Z " fill="rgb(255,255,255)" vector-effect="non-scaling-stroke" stroke-width="16" stroke="rgb(0,255,255)" stroke-linejoin="miter" stroke-linecap="square" stroke-miterlimit="3"/><path d=" M 324.648 251.347 L 187.576 249.638 L 151.988 368.154 C 150.084 374.497 153.914 379.714 160.536 379.797 L 285.609 381.356 L 324.648 251.347 Z " fill="rgb(255,255,255)" vector-effect="non-scaling-stroke" stroke-width="16" stroke="rgb(0,255,255)" stroke-linejoin="miter" stroke-linecap="square" stroke-miterlimit="3"/><path d=" M 484.76 253.346 L 359.688 251.787 L 320.648 381.796 L 445.721 383.355 C 452.344 383.437 459.267 378.354 461.171 372.011 L 493.308 264.988 C 495.213 258.645 491.383 253.428 484.76 253.346 Z " fill="rgb(255,255,255)" vector-effect="non-scaling-stroke" stroke-width="16" stroke="rgb(0,255,255)" stroke-linejoin="miter" stroke-linecap="square" stroke-miterlimit="3"/><path d=" M 727 90.522 L 614.88 90.522 C 608.257 90.522 601.333 95.672 599.429 102.015 L 563.84 220.531 L 700.912 222.239 L 735.667 102.05 C 737.507 95.687 733.623 90.522 727 90.522 Z " fill="rgb(255,255,255)" vector-effect="non-scaling-stroke" stroke-width="16" stroke="rgb(0,255,255)" stroke-linejoin="miter" stroke-linecap="square" stroke-miterlimit="3"/><path d=" M 690.921 255.787 L 553.849 254.079 L 518.261 372.594 C 516.356 378.937 520.186 384.154 526.809 384.237 L 639.883 385.646 C 646.505 385.729 653.428 380.646 655.333 374.303 L 690.921 255.787 Z " fill="rgb(255,255,255)" vector-effect="non-scaling-stroke" stroke-width="16" stroke="rgb(0,255,255)" stroke-linejoin="miter" stroke-linecap="square" stroke-miterlimit="3"/><path d=" M 202.083 86.72 L 77.01 85.161 C 70.388 85.079 63.465 90.162 61.56 96.505 L 29.423 203.527 C 27.519 209.871 31.349 215.087 37.971 215.17 L 163.044 216.729 L 202.083 86.72 Z " fill="rgb(255,255,255)" vector-effect="non-scaling-stroke" stroke-width="16" stroke="rgb(0,255,255)" stroke-linejoin="miter" stroke-linecap="square" stroke-miterlimit="3"/></g></g></svg>